<svg data-name="Layer 1" xmlns="http://www.w3.org/2000/svg" viewBox="0 0 1814.259 337.454"><path d="M544.765 88.827c-18.451 26.056-17.863 41.558-37.066 68.431-19.988 25.434-42.961 33.217-63.037 51.096-13.046 10.978-32.67-.981-45.419-8.952-12.85-6.029-21.364-2.024-29.242-17.171-5.848-10.786-10.485-21.473-24.647-20.156-71.705 13.099-28.488-43.902-96.778-21.626-20.757 8.892-44.27 31.054-59.461 48.683-8.749 12.686-29.351.005-38.09 11.294-17.482 29.513-55.646 28.12-72.93 57.488-14.938 29.992-69.98 23.663-77.947 54.974-.76 2.989 1.495 5.897 4.579 5.882 598.741-10.091 1239.262 37.417 1809.531 10.099 0 0-28.118-53.811-47.596-70.382-7.32-8.236-8.935-20.703-23.446-20.939-8.766-.598-3.315-18.12-14.748-23.086-18.223-7.574-28.409-23.444-42.544-38.39-21.588-20.343-27.795 39.125-49.641 22.23-5.253-4.099-7.576-4.176-13.195.821-30.006 21.943-36.181-.782-50.941-23.655-16.207-20.818-16.826-3.895-26.312-36.17-.695-2.364-3.117-3.875-5.508-3.278-16.928 4.232-20.836 35.782-40.484 11.35-24.689-30.008-62.497-66.999-73.594-93.27-11.838-25.162-26.804 26.577-42.368 32.617-5.858 2.782-16.621-17.978-22.017-22.515-15.025-16.032-34.723-31.729-44.353-52.281-19.849-42.912-35.343 43.587-50.226 47.117-24.56 5.108-36.469 34.724-46.113 51.357-10.91 17.827-29.273 29.894-38.966 49.803-7.267 15.004-17.268-9.355-34.384 1.334-9.317 5.325-46.736-25.729-59.196-38.943-20.297-22.218-28.857-47.908-53.237-17.274-1.859 2.336-5.425 2.383-7.304.063-12.945-15.99-12.376 2.072-22.874-6.045-16.282-13.791-24.471 11.523-33.903 26.234-2.068 3.226-6.914 2.707-8.327-.854-19.511-49.165-87.785 81.589-109.015 58.586-23.133-31.923-23.689-1.32-41.948-8.859-18.446-6.091-32.95 17.871-48.76 28.249-2.83 1.777-6.411-.094-7.107-3.157-9.191-24.182-46.571-61.424-55.26-57.984-16.551 5.098-62.956 11.281-69.677-5.352-9.833-23.574-25.703-21.935-33.503-40.039-19.203-49.996-20.083 7.42-34.138-38.894l-18.811 31.568Z" style="fill:#2C3E50;stroke-width:0"/></svg>