<svg xmlns="http://www.w3.org/2000/svg" viewBox="0 0 1896 217"><path d="M0 81c5-1 7 0 6 5 0 2 2 0 2 1 0 2-3 2-4 4h5c0 1-2 2-2 3 0 0 4-1 4 2 0 1 2 0 3 0s3-1 4 0c0 2 0 3-2 4l-5 5c3 0 4-2 5-3h2v2c-2 2-2 4-4 6h7v1c-3 2-5 4-7 6 3 0 6 2 7-4 0-3 7-5 11-4 0 0-1 2 0 3 2 0 5 2 7 2 0 0 2 0 2-1 0 0-1-1-2-1-3 0-4-4-7-5 0 0-1 0 0-1h2c2 0 3 1 4 2-1-1-3-3-4-5v-2h2c2 1 5 0 6 2v-2c0-4 0-4 4-3 0 0 2 1 2 0v-2c0-1-1-2-2-3v-2c3-3 6-6 7-11v-2c0 2 1 4 2 5 1 0 3 0 2 3 2 0 4-4 6 0 0 2 3 0 4-3 3 3 6 0 8-2s3-1 5-1c0-3-7-4-1-7 0-1-2 0-2-2h5c2-1 5-1 5 2 3 0 4 1 3 4 0 0 0 2 2 2 1 0 2-2 2-3v-3c2 0 4 3 6 2-3-4 0-7 2-1 0-2 2-5 5-4 0-1 0-3 2-2 2 2 5 3 4 6 0 0-1 2 0 2-3 1 1 4 0 5h3c2-2 3-2 4 1 0 3 4 2 5 5h1c-2 2 0 3 0 5 0 3 3 7 7 8-2-2-3-3-3-6v-2h2s0 2 2 0v-2c0-3 0-4 3-5 2 0 0-3 2-4 1-1 1-4 4-3 3 0 4 3 3 5 0 3 1 4 3 5 2 0 1 2 0 3 0 1-1 2 0 3 0 2 2 0 3 0h7c2-1 3-2 6-2 2 0 2 0 2-2s-3-4-1-5c1-2 3 2 5 1-1-1-3-3-3-4v-2c2 0 4-1 6 0h2v-1c0-1-3-2-1-3 0 0 3-1 5-1 1 0 3 0 4 2 0 1-2 2-2 4h4c1 3 0 6-3 8 0 0-1 0-2 2 3 0 4-2 6-2 0 2-2 3-3 5 2 0 3 0 4-1 0 0 1-1 2 0v2l-1 2c2 0 3-1 5-2h3c2 2 4 2 6 0 0-1-1-3-2-4 4 1 4 1 6-1 1-1 2-2 3 0 2 2 6 0 8 3 1 1 1 2 0 3 2 0 5-3 7 0-3 1-4 4-6 6 2 0 3-1 5-2-3 3-3 8-6 11 3 0 5-3 9-2-4 2-1 5 0 7 0 2 2 1 3 0 3 0 7 0 1-3h1c-2 6-8 6-12 8h8c3 0 5-1 6-4 0 0 0-2 2-2 1 0 0 0 0-2 0-1 0-3 2-4 3-1 3-5 6-6 1 0 0-4-1-5h-2s-2 0-2-2c0 0 0-1 1-1 4 0 6-4 9-6 1 0 2-2 0-3s-1-3 0-2c2 0 3-2 3-3 0-3 2-4 3-6 0-1 2-2 3-2 2 0 2 2 2 3 0 4 2 6 6 7 0 0 1 0 0 0v1h-5c4 2 6 3 6 7 0 1 5 3 6 3v-5c1-2 2-3 0-4 0 0-1-1 0-2h2c1 0 2 1 2 0h2c4 0 5-2 4-6v-2c0-1 0-2 2 0l2 2h2v-1c-2-3-2-5 0-8 0-2 0-3 2-2 1 0 1-1 1-2s3-2 4-2c2 0 2 3 2 5 0 3-1 5 3 4h1v2s-2 0-1 2c0 1 2 2 3 2 0 0 2-1 2 0 0 0 0 1-2 1s-3 2-2 4c0 2 2 2 4 2h4c4 1 4 0 4-3 0-4 1-6 5-6 2 0 3-2 4-3 0 0 2-2 3-2s2 2 1 3c0 3 0 4 3 4 2 0 2 3 0 5 0 0-2 2-2 3 2 1 3 2 5 1h2c0 3 2 2 3 5-5 0-1-1-13 4 5-1 9 4 15 5 0-1-2-3-1-3 3 0 0-4 3-3h2v-2c-2-2-1-3 1-3 0 0 2 0 2-1-2-6 4-7 6-1 0 0 3 0 3 2s3 3 5 4c2 0 4 1 5 2 0 0 2 2 3 0v-4c0-1-1-2-2-3-1-2-4-4 0-5 0 0 1 0 1-2 1-3 3-6 7-3 1 0 3 0 2-2 0-2-2-3-2-5 1-2 4-3 5-5h2c3 3 4 9 1 11-1 2 0 3 0 3 2 0 4 5 8 3 0 0 2 2 4 0s-1-3-1-5v-6c0-2 1 0 2 0 1 2 3 2 4 0h3c2 1 4 2 6 0h2c3 2 5 0 7-3 1 0 2-3 4-2 1 0 0 3 0 4 0 2-2 3-3 5 0 2-2 2-3 2h-1c-2 0-3 0-3 2s2 2 3 2c3-3 8-3 11-7 1-2 3-3 5-3s0 3 1 4c0 3 1 6 4 7 0 4 2 2 4 3-2-2 0-5 0-7 0-1 2 0 3 0 3 0 6 4 9 3-3-2-6-2-7-5 2-1 4 1 5 0 1-2 3 1 5 0-3-3-8-1-1-7 4 3 9 1 13 4h3c0-1 0-2-1-2l-6-3c-3 0-4-3-3-5 0-1 2-1 3 0 1 0 2 2 4 2-3-1-5-3-5-7 0-2 2-3 2-6h2s1 1 2 0c1 0 0-2 0-2v-5s0-1 0 0c4 1 2-1 2-3v-4h4c2 1 5 3 4-2 0 0 1-2 2-2 0 0 1 0 0-2 0-1 0-3 2-3s4 1 5 3c0 2 3 2 1 4-1 2-4 1-4 2 0 2-1 4 0 6 0 1 1 1 3 1 0 0 2-1 3 0 0 2-4 3 0 5h-3c0-1-2-1-3 0v2c0 1 1 3 3 2 2 0 5 0 7-2 0 4-3 6-4 9 3-1 4 0 3 3 0 2 2 4 3 6 0 0 1 0 0 2-2 4-1 4 3 5-2 3-5 6-9 6 3 1 5 4 8 2h6c0-3 2-1 3-2h1c-1-2 1-2 2-3-1-2-4-2-5-4-1 0-2-2-3-3v-2c6-3 11 2 17 0-3-2-6-3-8-5-1-1-3-2-2-4 0-2 0-3-2-4 0 0-1-1 0-2h2c2 0 5 2 8 0-1-2-4-3-3-6 3 3 5-2 9 0-2-2-5-3-3-6 0-3 0-3 3-2 0-1-1-2 0-3h3c1 0 2 2 3 0v-4c0-1-3-2-1-4 3-5 5 1 7 0 0-2 0-4 4-2 0-2-1-3 0-4-1-2-3-4 2-3v-1c-1-3 0-4 2-5 0 0 2-1 3-2 1-2 3-2 3 0 0 1 1 1 2 0 0 0 2 0 3-1v3c0 2-2 4 2 3 2 0 1 2 1 3 0 2 0 3 2 2 2 0 2 0 2 2 0 1 0 2-1 3 0 1 1 2 2 2 0 0 2 0 2-1v-3c1-1 1 1 3 0v-2c-2-3 0-5 3-6s4-4 6-7c1 2 4 4 4 5 0 3 2 5 5 5v2c0 6 5 9 1 13 2 2 0 4 0 6 2 0 3-2 4-2 2 0-1 4 2 2v5c0 2-3 3-4 6 0 0-1 1 0 2h3c3-1 6-2 9-2h1c3 2 5 0 7-2-1 0-2-1-3-2 0 0-1-1 0-2 0-1 1 0 2 0 0 0 3 0 2-2v-1c3 1 3 0 3-2s4-2 6-2 2 3 3 4c0 1 1 3 0 4v2c2 0 3 2 5 2-3 2-3 5-2 6 2 1 2 5 5 4 0 4-5 1-7 4 2 2 4 3 2 7 0 1 1 3 0 5 3 3 6 6 8 1 0 1 2 3 4 3s4 0 3-3c0-3 0-4 3-5 2 0 2-3 3-5s1-5 5-2h2c0-3 4-5 4-8 0-1 0-2 2-3 0-1 2-2 3 0 0 1 0 3 3 3 1 0 2 2 1 3-2 2-2 4 0 6v2c3-3 8-4 6-1 4 0 4 0 4-3v-2c3 0 3-2 2-4v-3c1-1 2-3 2-5s0-3 2-3 2-1 4-2c0 0 3-1 1-3v-3c1-1 2-3 4-2 0-2 0-3 2-3s0-2 0-3 0-2 1-3c1 0 2 1 2 2 4 2 4 5 4 8 1 4 1 4 5 2q0 3-3 7h6v2c0 1-4 3 0 4 2 0 0 4 4 4 2 0 3 2 3 4 0 3 0 6 2 8 7 2 7 3 5 9h3c5 0 5 0 5 5 0 0 0 2 1 2 2 0 4-1 7 0l2-2c0-3 3-4 3-6 5 0 4-4 6-6 1-1 2 0 2 0 0 1 1 3 2 5 0 2 0 4 3 4 0 4 5 8 0 12 2 0 2 0 2-1 0 0 0-2 2-2 3 0 4-2 4-5 0-2 2-4 4-5s4 0 4 2c0 3 2 5 3 7h3s2 0 2-2c0-4 4-7 6-1 0-1 1 0 2 0 2 0 3 0 3-2 0-3 3-5 4-7s3 0 3 0c0 1 1 2 3 0 0-1 2-2 4-2 1 0 2 3 2 5s0 4 3 3h1v2s-2 0-1 2c0 1 2 2 3 2h2c0 1 0 1-2 2-1 0-2 0-3 2 0 1 0 3 1 3 0 0 1 0 2-1v-1c2-3 2-3 4 0 0 1 1 2 2 2s0-2 0-3c0-4 0-7 6-6 1 0 2-2 4-3 0 0 2-2 3-1 1 0 1 2 1 3v2c0 1 0 2 1 2 0 0 2 0 2-1 0-2 2-2 3-2 2 0 2 0 2-3v-2c3 0 4-2 6-3h4c1 1 2 2 4 3 0 0 1 1 2 1 4-2 8 2 12 3-3-2-4-4-4-6s2-5 4-7c1 0 2-2 3-4 0 0 0-2 2-2 1 0 2 1 2 2 0 4 4 6 5 9h1v-1c0-1-2-3 0-4 1-2 4-2 5-4h1c1 2 3 2 5 2 0-1-1-1 0-3 2 0 3 1 5 1 0-1-1-2-2-3-3-3-2-6 0-8 0 0 2-1 2-3 0-1 0-2 1-2s2 0 2 1c1 2 3 3 5 2h2c-2 2 2 5 0 8 3 0 5 1 7-1 2 2-4 5 1 6 0 1-2 1-3 2h4c-1 1-2 3-4 4h7c1 0 3-1 4-3 0 0 0-1 1-1s2-2 3-2 0 3 0 4c0 2-2 3-3 5 0 2-2 2-3 2-2 0-3 0-4 2v1h4c5-2 9-6 13-9 2-1 2-1 2 1 0 4 0 8 5 1 1 0 1 4 4 4-3-2 0-4 0-7 0-1 2 0 2 0 3 0 6 4 9 3-3-2-6-2-8-6 4 2 7-2 11 0-3-3-8-1-1-7 4 3 9 1 13 4h3c0-1 0-2-1-2-2-1-4-2-6-2-3 0-4-3-3-5 0-1 2-1 3 0 1 0 2 2 4 2-3-1-5-3-5-7 0-2 2-3 2-6 0 0 1 0 2 1 0 0 1 1 2 0 1 0 0-2 0-2v-5c5 1 2-2 2-4 0-1 0-3 1-3h4c1 0 2 1 3 1s2 0 2-2 0-3 2-4c0 0 1 0 0-2 0-1 0-3 2-3s4 1 5 3c0 0-1 0 0 1 3 2 1 3 0 4-3 1-3 3-3 6s1 3 4 2h2c0 1-3 2-1 4h-1s-1 0-2-1c0-1-2-1-3 0v2c0 1 1 3 3 2 2 0 5 0 6-2 0 4-3 6-4 1 3-1 4 0 3 3 0 2 2 4 3 6v2c-3 5 0 5 5 6-3 3-5 6-1 6 7 4 2 11 4 16 2 0 4-3 5 1 0 2 3 0 4 0 0 0 0-2 1-2 4 1 6 0 8-3 1-1 3 0 4 0q-4-5-1-7c0-1-2 0-2-1h8c0 2 1 4 4 3 0 0 1 1 0 2-2 2 0 3 0 4h2c1 0 2-2 1-4v-2c2 0 3 3 6 2-2-4 0-7 2-9 0-2 2-5 5-4 0-1 0-4 2-2s5 3 3 7v2c-3 2 1 4 0 5 0 0 2-1 3-2h2c0 4 4 4 6 6 0 0 1 0 0 0-2 2 0 3 0 5 0 4 4 6 6 8-1-2-3-4-3-6v-2h2s0 2 2 0v-2c0-3 0-4 3-5 2 0 0-3 2-4 1-1 1-4 4-3 3 0 4 3 3 5 0 3 1 4 3 6 2 0 1 2 0 3 0 0-1 2 0 3 0 2 2 0 3 0h4c1 0 3 0 4-1 0 0 3-3 5-1h2v-2c0-2-3-3-1-5s3 2 5 1c-1-1-3-3-3-4v-2c2 0 4-1 6 0h2v-2s-3-2-1-3c1-1 3-1 5-1 4 0 4 1 2 5h4c1 2 0 7-2 8 0 0-2 0-2 2 2 0 3-3 6-2 0 2-2 3-3 5h2c1 0 2-2 4-1 1 0-1 2-1 4 3-2 7-3 1 0h4c0-1-2-3-2-4 2 0 3 2 5 2 0-2 1-3 2-4s2 0 3 1h3c1 0 0-2 0-3 0-2 0-4-1-5 0-2 1-5 2-5 4 0 4-4 5-6s2-4 4-1c0 0 2 1 3 0 0-3 4-5 4-8 0-1 0-2 2-3 0 0 2-2 3 0v1c3 2 4 4 2 8 0 1 3 2 2 5 4-3 8-4 7-1 4 0 4 0 4-3v-2c3 0 3-2 2-4v-4s1-1 1-2c0-4 2-5 5-7 2 0 4-1 2-4v-2c1-1 2-3 4-2 0-2 0-3 2-3 1 0 0-1 0-2s0-3 1-3c2 0 2 2 2 2 4 1 3 5 4 7 2 5 1 5 6 2 1 3-2 4-4 7h6v2c-2 2-3 3 0 5 1 1 3 3 4 3 2 0 2 2 2 3v6c0 1 1 4 5 3 2 0 4 0 5-3 0 0 2-2 3 0 1 1 2 3 1 4 0 3-2 5 3 4 1 0 1 2 0 3 0 0-3 0-1 2 0 0 2 2 3 1h2c0 1 0 1-2 2-1 0-2 0-2 2 0 1 2 0 2 0 4 0 5-1 6-5 0-1 1-5 5-4 0 0 1 0 0 0 0-2 2-3 2-5 0 0 0-2 2-2 1 0 2 1 2 2 0 2 0 3 3 2 2 0 2 2 2 3 0 2 0 4 3 4 2 0 2 2 1 4 0 1-2 3-3 4 1 0 1-4 4-2 2 2 8 3 5 8 0 2 1 3 0 5h3c0-2 0-2 2-2s3 0 0-3c-2-2-1-3 1-3h2c-2-6 3-7 6-1 2-2 4-4 5-6 0 0 1-1 2 0 2 1 3 1 4-2 0-3 3-5 4-7 0-1 2 0 3 0 1 1 3 2 3 5 0 2 2 3 4 2 2 0 0-2 0-4s-2-3-1-5 4-3 5-5h2c3 3 4 7 1 11-1 2 0 3 0 3 3 0 4 5 8 3 0 0 2 3 3 0 0 0 1-2 0-2-2-2-1-3 0-5 0-3 0-6 4-2 4-4 8 3 12 0 5 2 7-1 9-4 0 0 2-2 3-1 1 0 0 2 0 3 0 0-1 2 0 2 2 0 3 2 5 1l1-1c2-2 4-3 4 2 0 4 5 4 9 7-3-6-1-1 3-13 0 0 1-2 2-3 0-2 2-3 3 0 3-3 5 0 9 0-4-2-6-4-6-7 0-2 2-3 2-5 0 0 2 0 2 1 0 0 2 1 3 0v-2c-1-2 0-3 0-5 0 0 0-1 0 0 5 1 2-2 2-3s0-3 1-4 3 0 4 0 2 1 3 1c0 0 2 0 1-1 0-2 0-4 2-5v-1c0-2 0-4 2-3 2 0 4 1 4 4v1c2 2 2 4-1 4-2 0-3 6-2 8 2 2 3 0 5 0-1 2-1 4 0 5-2 0-2 0-3-2 0 0-2-1-2 0s0 2 1 2c3 1 5 1 8 0 0 2 0 4-2 5-1 0 0 2 0 2 1 0 0 4 3 2 0 0 1-1 2 0 2 2-4 5 1 5 0 2-2 1-3 2h4l-3 3v2h2c2 0 3 2 5 1v2c-2 2 0 3 0 5 0 1 2 1 2 0 0-3 3-1 5-2-2-2 0-3 2-4 0-2-2-2-3-3-2 0-4-2-5-4v-2c5-3 1 0 14 0h3c-3-2-5-2-8-4-1-1-3-2-2-4 0-2 0-3-2-4 0 0-1 0 0-2 0-1 1 0 2 0 2 0 5 2 8 0-2-2-4-3-3-6 3 3 5-2 9 0-3-2-4-5-3-8 0-1 2 1 3 0 0 0-1-2 0-3h3s2 2 3 0v-4c0-1-3-2-1-4 1-2 2-2 4 0 0 0 2 0 3 1 0-3 0-4 4-2 0-2-1-3 0-4v-1c-2-2-2-3 1-3v-1c-1-3 0-4 2-4 0 0 2 0 2-2 2-2 3-2 4 0s3-1 5 0v2c0 2-2 4 2 4 1 0 0 2 0 3v2c5 0 3 3 2 5 0 3 0 3 2 2 0 0 2 0 0-2v-2c1-1 2 0 3 0v-3c-2-3 0-5 2-6 3-1 4-4 6-7 0 4 8 5 4 11 5-3 6-3 7 3 1 5 5 8 8 1 4 2 2 4 0 7 2 0 3-2 4-2 2 0-2 4 2 2 0 3 0 5-2 7 0 0-1 2-2 3-1 2 0 2 2 2h2c4-2 7-2 11 0h1c0-2 2-2 3-3 0 0-2 0-2-2 0 0-2-2-1-3h2s3 0 1-1c0 0 0-1 1-1 2 0 3 0 3-2s2-2 3-2c2 0 4 0 4 2s4 3 1 6v2c1 0 3 1 4 2-4 1-3 5-2 6 3 0 2 5 5 4 0 2-2 2-4 2h-2c0 1 1 0 1 2 0 1 3 3 0 5 3 4 0 4-3 6 7 0 8 5 1 8 1 2 3 3 4 4h4c1 0 0-2 0-3-1-2 2-5 2-5 4 0 3-3 4-5s2-5 5-2h2c0-3 3-4 4-7 0-1 0-2 1-3 0-1 1-2 3-2 1 0 0 2 1 2 4 2 3 4 2 7 0 1 2 2 2 3v2c3-3 8-4 6-1 4 2 5 0 4-3 0-1 0-2 1-2 2 0 3-2 2-3v-4c1-1 2-3 1-5 0-2 0-3 3-3 1 0 3 0 4-2 0 0 3-1 1-4-1-2 0-5 3-5 0 0 1 0 0 0 0-2 0-2 2-2s1 0 1-2c0-1 0-3 1-4 2 0 2 2 2 2 4 1 3 5 4 7 2 5 2 5 5 2q0 3-3 6c2 1 3 0 4 0h3v2c-2 2-3 3 0 5 1 1 3 3 5 3s1 2 2 3c0 3 0 6 2 8l1 1c3-2 4 1 5 2 2 1 1 3 0 7h3c5 0 5 0 5 5v1h7c2 0 3-2 4-4 0-2 4-5 6-4-1-3 2-4 3-6 0-1 2 0 2 0 0 2 2 4 1 6 0 1 0 2 1 2 2 0 3 0 2 3 5 2 1 5 1 9 2 0 2 0 3-2 0-2 1-2 3 0 1 1 4 1 5 4v2c-2 3-1 6 0 9v2c2-2 4-3 5 0h2v-2c-2-2-2-3 0-5 1-1 1-3 3-4s0-3 0-5c3 0 4-2 5-5 0-3 4-6 6-9 4 3 4 0 5-3 0-2 2-3 3-5 0-1 2-1 3 0 1 2 3 3 3 6 0 2 2 4 0 6 4 0 2 3 4 5v1s3 0 2 3c0 0 0 3 2 0 1-2 3-4 4-5 0 0 1-2 2 0 0 2 3 4 3 7 0 5 3 7 8 4 2-1 3 0 4 0 0-2-2-3-3-5 0-1 0-3 1-2 3 0 2-3 4-3 0-3 2-2 3-4 0-2 2-3 4-3 1 0 2-1 2-2v-3c3 0 4-1 6-3 1-1 3-1 5 0 1 1 2 2 4 3 0 0 1 1 2 1 4-2 8 2 12 3-3-2-4-5-3-7 0-2 2-5 4-6 2 0 2-3 3-4 0-2 2-2 3 0 0 4 4 6 5 9 4-1 4 5 8 4-3-3 0-7-1-11h5c0-1-1-2 0-3 2 0 3 2 5 1 0-1-1-2-2-3-2-2-2-6 1-7 1 0 2-2 2-3 0 0 0-2 1-2s1 0 2 1c1 2 3 3 5 3s3 0 2 2 3 4 0 6h7c1 2-4 5 1 6 0 1-2 1-3 2h4s-1 2-2 2-2 2-1 4c0 2 2 0 3 0 0 2-2 2-2 4 2 0 2-1 3-2 0 0 1-1 2 0v5c1 3 0 5-1 8-2 2-3 5-6 5 2 0 4 0 4 2 0 1-1 2-2 3-3 3-3 6-2 9 0 1 2 1 3 1 3 0 6 0 8-1 2 0 0-2 2-2 1 0 0 1 0 2v119c0 3 0 4-4 4H-44V93Zm449 6c3-2 5 0 8 0 4 0 4 0 6-4 0-2 0-4-2-3-3 0-5 2-8 0-1 0-2 1-3 2v4Zm516 0c3-2 6 0 8 0 4 0 4 0 6-4 0-2 0-4-2-3-3 0-6 2-9 0 0 0-2 1-2 2v4Z" style="fill:#003724;stroke-width:0"/></svg>